<?xml version="1.0" encoding="utf-8"?><svg version="1.1" id="Layer_1" xmlns="http://www.w3.org/2000/svg" xmlns:xlink="http://www.w3.org/1999/xlink" x="0px" y="0px" viewBox="0 0 81.55 122.88" style="enable-background:new 0 0 81.55 122.88" xml:space="preserve"><g><path d="M40.77,41.33c1.26,0,2.51,0.06,3.74,0.17c0.87,0.06,1.74,0.14,2.62,0.24l8.08-11.2H26.39l8.34,11.2 c0.43-0.05,0.87-0.1,1.3-0.13C37.59,41.42,39.17,41.33,40.77,41.33L40.77,41.33z M17.66,27.98h-0.18c0-1.49-0.56-2.79-1.67-3.91 c-1.11-1.11-2.42-1.67-3.9-1.67v-0.18c1.49,0,2.79-0.56,3.9-1.67c1.11-1.12,1.67-2.42,1.67-3.9h0.18c0,1.49,0.56,2.79,1.67,3.91 c1.11,1.11,2.42,1.67,3.9,1.67v0.18c-1.49,0-2.79,0.56-3.9,1.67C18.22,25.19,17.66,26.49,17.66,27.98L17.66,27.98L17.66,27.98z M33.94,11.33h-0.18c0-1.49-0.56-2.79-1.67-3.9c-1.11-1.11-2.41-1.67-3.91-1.67V5.58c1.49,0,2.79-0.56,3.91-1.67 c1.11-1.12,1.67-2.42,1.67-3.9h0.18c0,1.49,0.56,2.79,1.67,3.9c1.11,1.11,2.42,1.67,3.9,1.67v0.18c-1.49,0-2.79,0.56-3.9,1.67 C34.49,8.54,33.94,9.84,33.94,11.33L33.94,11.33L33.94,11.33z M58.85,16.53h-0.18c0-1.49-0.56-2.79-1.67-3.91s-2.41-1.67-3.91-1.67 v-0.18c1.49,0,2.79-0.56,3.91-1.67c1.11-1.12,1.67-2.42,1.67-3.9h0.18c0,1.49,0.56,2.79,1.67,3.91c1.11,1.11,2.42,1.67,3.9,1.67 v0.18c-1.49,0-2.79,0.56-3.9,1.67S58.85,15.04,58.85,16.53L58.85,16.53L58.85,16.53z M50.07,42.4c7.53,1.76,14.25,5.59,19.53,10.88 c7.38,7.38,11.94,17.57,11.94,28.83c0,11.26-4.56,21.45-11.94,28.83c-7.38,7.38-17.57,11.94-28.83,11.94 c-11.26,0-21.45-4.56-28.83-11.94C4.56,103.56,0,93.36,0,82.11c0-11.26,4.56-21.45,11.94-28.83c5.34-5.34,12.15-9.2,19.78-10.93 l-9.2-12.35c-0.1-0.13-0.17-0.27-0.21-0.42l0,0l0-0.01l0,0c-0.04-0.13-0.06-0.26-0.06-0.4c0-0.34,0.12-0.65,0.32-0.89l6.77-10.21 c0.27-0.4,0.71-0.62,1.16-0.62v0h20.86c0.52,0,0.97,0.28,1.21,0.7l6.45,10.17c0.18,0.23,0.29,0.52,0.29,0.83l0,0.02 c0,0.33-0.11,0.66-0.33,0.91L50.07,42.4L50.07,42.4z M43.86,44.24c-1-0.06-2-0.09-2.99-0.08c-1.38,0-2.76,0.06-4.13,0.17 c-8.88,0.94-16.85,4.93-22.84,10.92C7.04,62.12,2.78,71.61,2.78,82.11c0,10.49,4.25,19.99,11.13,26.86 c6.87,6.87,16.37,11.13,26.86,11.13c10.49,0,19.99-4.25,26.86-11.13c6.87-6.87,11.13-16.37,11.13-26.86 c0-10.49-4.25-19.99-11.13-26.86C61.44,49.05,53.12,44.98,43.86,44.24L43.86,44.24z M31.23,20.21l-5,7.54h29.15l-4.79-7.54H31.23 L31.23,20.21z M53.4,108.66c-1.93,0.92-3.99,1.64-6.14,2.12c-2.1,0.47-4.27,0.72-6.48,0.72c-8.12,0-15.47-3.29-20.79-8.61 c-5.32-5.32-8.61-12.67-8.61-20.79s3.29-15.47,8.61-20.79c5.32-5.32,12.67-8.61,20.79-8.61c8.12,0,15.47,3.29,20.79,8.61 c5.32,5.32,8.61,12.67,8.61,20.79c0,3.58-0.64,7.01-1.82,10.19c-1.22,3.29-3.01,6.31-5.25,8.93c-1.34,1.56-2.84,2.98-4.47,4.23 C57.01,106.7,55.25,107.78,53.4,108.66L53.4,108.66z M46.64,108.07c1.93-0.43,3.79-1.08,5.56-1.92c1.69-0.81,3.28-1.78,4.75-2.9 c1.48-1.13,2.84-2.42,4.05-3.83c2.03-2.37,3.65-5.1,4.75-8.08c1.06-2.87,1.64-5.98,1.64-9.23c0-7.35-2.98-14-7.79-18.82 c-4.82-4.82-11.47-7.79-18.82-7.79c-7.35,0-14,2.98-18.82,7.79c-4.82,4.82-7.79,11.47-7.79,18.82s2.98,14,7.79,18.82 c4.82,4.82,11.47,7.79,18.82,7.79C42.8,108.72,44.77,108.5,46.64,108.07L46.64,108.07z"/></g></svg>